<svg id="bfzLogo" xmlns="http://www.w3.org/2000/svg" viewBox="0 0 100 75" width="100" height="75"><defs><style>.cls-1{fill:#00925b;}</style></defs><title>bfzLogo</title><path class="cls-1" d="M47.49,75a15.46,15.46,0,0,1-10.08-3.92A15,15,0,0,1,32,60c0-8.12,0-24.29,0-24.29v-.65H43.49v.64c0,.09.1,8.84,0,14.4v.21c0,2.11.15,2.56.33,2.56s.46-.94.91-4.56l0-.19a2.78,2.78,0,0,1,1-1.91,3,3,0,0,1,2.35-.7h.36c5.07-.08,12.67,0,12.75,0A3.6,3.6,0,0,0,62.57,45a2.23,2.23,0,0,0,.5-1.18,12.75,12.75,0,0,1,5.08-7.64c8.14-5.34,15.06.77,15.13.83l.43.39L79,44.11l-.48-.2c-1.18-.5-3.38-1.08-4.32-.47a1.2,1.2,0,0,0-.49,1.13c0,.42.1.59.19.67.43.44,1.81.47,2.81.46H94.22a5.29,5.29,0,0,1,5.17,2.8,6.09,6.09,0,0,1-1.09,6.84l-6.43,7.39a4.58,4.58,0,0,1-.7.69c-.58.5-.71.67-.63.85s.27.28,1.1.25c.21,0,.44,0,.68,0,1.94,0,5.43,0,5.46,0h.66v9.79H84.06A7.8,7.8,0,0,1,77,70a6,6,0,0,1,1.16-6.91l6.1-6.39.43-.4c.34-.31.92-.83.78-1.06s-.23-.28-.91-.29H74.94a1.57,1.57,0,0,0-1.18.23,4.53,4.53,0,0,0-.15,1.63c0,.28,0,.56,0,.79V74.21h-9.8V56.94c0-.72-.2-1.87-.64-2.17-.06-.05-.23-.16-.67,0A1.13,1.13,0,0,0,62,56.07L62.4,58a14.56,14.56,0,0,1-2.93,10.89,15.45,15.45,0,0,1-10.14,6A12.55,12.55,0,0,1,47.49,75ZM33.31,36.35c0,3.09,0,16.49,0,23.64a14.48,14.48,0,0,0,15.84,13.6,14.12,14.12,0,0,0,9.28-5.5,13.23,13.23,0,0,0,2.69-9.88l-.43-1.83A2.42,2.42,0,0,1,62,53.57a1.91,1.91,0,0,1,1.87.12c1.15.79,1.21,2.84,1.21,3.25v16h7.2V57.54a6.23,6.23,0,0,0,0-.75c0-1.07,0-2.18.7-2.69a2.83,2.83,0,0,1,2-.47h9.61a2,2,0,0,1,2,.93c.68,1.15-.43,2.15-1,2.69a2.85,2.85,0,0,0-.35.33L79.14,64a4.73,4.73,0,0,0-.91,5.49A6.47,6.47,0,0,0,84.07,73H97.14V65.84c-1.12,0-3.4,0-4.86,0h-.6c-.81,0-1.83.06-2.32-1s.38-1.86,1-2.36a4,4,0,0,0,.55-.53l6.48-7.45a4.74,4.74,0,0,0,.89-5.34,4,4,0,0,0-4-2.12H76.71c-1.71,0-3-.11-3.75-.84a2.11,2.11,0,0,1-.56-1.62,2.46,2.46,0,0,1,1.09-2.19c1.47-1,4-.22,5,.17L82,37.63a11.05,11.05,0,0,0-13.1-.36A11.65,11.65,0,0,0,64.35,44a3.29,3.29,0,0,1-.9,1.94,4.63,4.63,0,0,1-2.19.85c-.12,0-3.89,0-7.87,0-1.7,0-3.43,0-4.94,0h-.38c-.77,0-1.09,0-1.46.36s-.39.37-.57,1.22c-.46,3.77-.95,5.78-2.22,5.78h0c-1.67-.06-1.63-2.36-1.59-3.89v-.2c.09-4.67,0-11.59,0-13.72ZM47.59,65.51a5.7,5.7,0,1,1,5.7-5.7A5.71,5.71,0,0,1,47.59,65.51Zm0-10.09A4.4,4.4,0,1,0,52,59.81,4.4,4.4,0,0,0,47.59,55.42Z"/><path class="cls-1" d="M75.53,5.53c9.1,2,14.54,8,19.07,16.23C98.22,28.31,100,37,100,37c-2.82-.84-12.75-3.22-12.78-3.32-.93-3.18-3.53-10.12-7.19-15s-5.87-7.8-12.24-10.25C63.41,6.78,57,7.86,57,7.8s9.34-4.26,18.53-2.27"/><path class="cls-1" d="M71,2.08c-11.18-4-26.1-1.76-34.74,3C21.8,13,13.82,28.92,9.45,38.33A121.93,121.93,0,0,0,3.2,56.46C1.7,61.9,0,70.58,0,70.58L12.27,75s1.53-8.71,2.93-14.18a122.93,122.93,0,0,1,5.9-18.25c4.2-9.49,11.94-25.84,26.25-34C55.9,3.63,62,2.24,71,2.08"/></svg>